<?xml version="1.0" encoding="UTF-8" ?>
<!DOCTYPE svg PUBLIC "-//W3C//DTD SVG 1.1//EN" "http://www.w3.org/Graphics/SVG/1.1/DTD/svg11.dtd">
<svg width="1000pt" height="1000pt" viewBox="0 0 1000 1000" version="1.1" xmlns="http://www.w3.org/2000/svg">
<g id="#c83b50ff">
<path fill="#c83b50" opacity="1.00" d=" M 555.40 0.00 L 569.52 0.00 C 579.16 0.55 588.76 2.15 597.99 5.05 C 628.26 14.18 654.28 36.21 668.54 64.40 C 673.01 72.65 675.75 81.66 678.60 90.55 C 685.59 96.46 692.79 102.22 699.08 108.93 C 725.36 135.66 741.92 171.62 745.52 208.91 C 748.93 242.53 742.18 277.17 725.81 306.78 C 710.14 335.24 686.10 359.14 657.36 374.33 C 655.71 375.23 654.06 376.30 653.15 378.00 C 637.91 404.56 615.14 426.87 587.99 441.10 C 584.66 442.93 582.26 445.94 579.58 448.55 C 567.06 461.04 554.60 473.59 542.05 486.04 C 537.82 489.81 534.13 494.17 529.62 497.62 C 521.07 503.57 509.63 504.56 499.85 501.41 C 492.21 499.17 487.00 492.85 481.34 487.68 C 465.44 471.89 449.66 455.99 433.79 440.18 C 429.55 435.89 423.90 433.51 419.20 429.84 C 406.91 421.35 396.37 410.62 386.73 399.29 C 385.46 397.44 383.02 397.63 381.07 397.33 C 368.80 396.29 356.62 394.04 344.85 390.39 C 303.64 377.78 267.75 349.02 246.41 311.59 C 230.45 283.97 222.60 251.89 223.64 220.03 C 224.47 189.87 233.32 159.91 249.31 134.29 C 267.85 104.24 295.81 80.05 328.34 66.29 C 331.21 65.08 334.41 64.04 336.29 61.37 C 347.24 47.36 362.56 36.82 379.54 31.52 C 397.44 25.86 417.10 26.12 434.91 32.03 C 446.45 35.76 456.86 42.25 466.18 49.91 C 475.46 36.83 487.16 25.14 501.24 17.26 C 517.51 7.15 536.34 1.48 555.40 0.00 M 501.19 50.21 C 488.22 62.25 477.26 78.04 475.78 96.14 C 474.39 108.51 477.63 120.93 483.10 131.96 C 485.27 136.68 488.46 141.90 486.24 147.22 C 483.98 155.34 472.98 158.73 466.44 153.50 C 461.51 149.23 459.49 142.75 456.85 137.00 C 448.61 117.53 447.16 95.19 453.78 75.02 C 442.12 61.75 424.68 53.71 406.98 53.71 C 389.60 53.36 372.38 60.92 360.54 73.58 C 353.01 82.36 345.51 91.68 342.10 102.93 C 339.89 109.36 340.32 116.24 340.26 122.93 C 340.46 129.34 334.18 134.63 328.01 134.55 C 322.67 134.82 317.42 131.23 315.66 126.21 C 313.71 118.74 314.29 110.95 315.14 103.37 C 304.92 109.82 296.09 118.17 287.80 126.90 C 258.04 158.94 244.51 204.92 251.42 248.03 C 256.76 282.76 275.24 315.26 302.21 337.77 C 321.55 353.99 345.19 364.92 369.98 369.53 C 366.32 360.02 363.37 350.15 362.50 339.95 C 362.03 336.25 362.82 332.28 365.28 329.39 C 369.75 323.60 379.43 323.11 384.41 328.49 C 387.22 331.12 387.89 335.09 388.38 338.73 C 390.09 352.62 396.04 365.66 403.75 377.21 C 422.39 404.77 452.59 423.74 484.97 430.58 C 499.01 433.77 513.52 433.75 527.80 432.72 C 544.04 430.74 560.02 426.07 574.55 418.49 C 601.93 404.06 625.24 380.47 636.22 351.23 C 639.22 343.75 641.63 336.02 642.87 328.05 C 643.40 323.73 646.00 319.68 650.00 317.83 C 655.88 314.77 663.76 317.39 666.89 323.16 C 669.10 327.02 668.39 331.62 668.05 335.85 C 677.31 327.84 685.98 319.06 693.16 309.12 C 715.51 278.78 724.73 239.20 718.19 202.09 C 712.56 167.60 693.28 135.74 665.76 114.26 C 662.00 111.09 657.19 108.71 654.93 104.13 C 653.37 100.19 652.80 95.95 651.44 91.94 C 645.88 73.44 634.43 56.76 618.99 45.12 C 603.67 33.27 584.43 26.37 565.03 26.26 C 541.68 25.32 518.40 34.58 501.19 50.21 Z" />
<path fill="#c83b50" opacity="1.00" d=" M 574.40 249.57 C 582.13 247.38 591.14 249.30 596.78 255.19 C 604.42 262.76 605.25 276.10 598.61 284.55 C 594.22 290.11 587.15 293.65 580.00 293.03 C 569.92 293.15 560.69 284.92 559.21 275.05 C 558.53 269.62 558.94 263.72 562.12 259.09 C 565.14 254.81 569.27 251.02 574.40 249.57 Z" />
<path fill="#c83b50" opacity="1.00" d=" M 413.42 250.56 C 418.38 249.27 423.87 249.27 428.63 251.34 C 435.83 254.24 441.16 261.28 442.07 268.98 C 442.95 275.51 440.85 282.44 436.24 287.19 C 431.45 292.45 423.97 295.06 416.94 293.97 C 409.99 293.10 403.85 288.47 400.48 282.43 C 397.17 276.05 396.98 267.96 400.43 261.60 C 403.11 256.42 407.91 252.41 413.42 250.56 Z" />
<path fill="#c83b50" opacity="1.00" d=" M 481.02 320.51 C 505.67 319.75 530.32 320.71 554.98 320.48 C 557.63 320.44 560.28 320.57 562.93 320.81 C 559.83 337.92 551.03 354.37 536.92 364.83 C 526.47 372.84 513.13 376.98 499.98 376.03 C 483.69 375.18 468.48 366.21 458.53 353.49 C 450.89 344.06 446.30 332.51 444.01 320.67 C 456.34 320.29 468.68 320.61 481.02 320.51 Z" />
<path fill="#c83b50" opacity="1.00" d=" M 382.35 560.43 C 399.53 551.65 420.63 551.09 438.31 558.81 C 451.05 564.21 461.79 573.88 468.93 585.69 C 478.90 571.74 495.70 562.68 512.97 563.21 C 530.35 562.95 546.91 572.46 556.81 586.52 C 561.77 578.76 567.85 571.62 575.40 566.26 C 588.21 557.00 604.41 552.62 620.14 554.15 C 638.70 555.69 656.38 565.62 667.24 580.77 C 670.75 585.55 673.29 590.94 675.88 596.25 C 689.86 586.14 708.68 583.15 725.00 588.88 C 736.28 592.68 746.09 600.51 752.46 610.55 C 760.26 622.74 762.82 638.20 759.20 652.23 C 758.38 655.78 756.25 658.80 755.12 662.23 C 749.54 679.80 743.85 697.34 738.27 714.91 C 750.47 719.48 760.86 728.60 767.08 740.02 C 769.15 745.50 770.56 751.24 771.78 756.96 C 772.28 764.01 769.20 770.68 767.78 777.48 C 766.08 781.33 763.52 784.70 760.87 787.95 C 757.60 792.31 752.80 795.06 748.67 798.49 C 749.26 800.22 749.84 801.96 750.42 803.72 C 753.74 797.68 757.84 791.60 764.10 788.32 C 767.24 787.14 770.50 786.04 773.86 785.86 C 778.72 786.63 783.41 788.30 787.96 790.16 C 791.95 779.33 795.16 768.23 798.34 757.14 C 800.21 753.37 803.11 750.05 806.54 747.60 C 810.06 744.86 814.70 744.55 818.81 743.17 C 828.65 745.28 837.76 749.64 846.55 754.40 C 850.96 756.96 854.17 760.93 857.19 764.95 C 867.56 761.91 878.03 766.08 887.86 769.12 C 901.35 775.60 913.18 787.61 916.29 802.62 C 917.65 808.13 920.12 813.81 918.47 819.55 C 917.19 824.16 916.30 828.92 914.38 833.31 C 910.80 840.12 905.75 846.10 899.73 850.85 C 898.34 857.47 897.13 864.26 894.45 870.53 C 889.87 878.30 883.42 885.04 875.67 889.69 C 870.92 892.09 865.58 892.91 860.51 894.41 C 850.97 896.79 841.42 893.45 832.43 890.52 C 821.75 885.72 813.27 876.85 807.77 866.61 C 800.99 868.10 794.25 871.32 787.18 869.68 C 781.89 868.17 776.34 867.26 771.43 864.71 C 761.24 858.99 752.62 849.90 748.81 838.72 C 746.46 840.54 744.07 842.31 741.44 843.69 C 742.46 844.02 743.48 844.36 744.52 844.71 C 742.41 847.71 743.93 851.52 743.22 854.89 C 740.98 870.89 738.42 886.85 735.88 902.81 C 735.21 906.81 734.77 911.05 732.38 914.47 C 728.18 921.25 720.09 925.54 712.07 924.44 C 698.94 922.96 685.99 920.11 672.86 918.57 C 666.90 936.53 661.13 954.54 655.36 972.56 C 652.69 980.07 651.36 988.22 646.99 995.01 C 644.76 998.58 640.61 1000.16 636.53 1000.00 L 384.50 1000.00 C 378.57 997.37 375.67 991.16 373.89 985.31 C 367.14 963.25 359.79 941.39 352.75 919.43 C 339.43 920.75 326.28 923.51 312.92 924.50 C 305.73 925.10 298.65 921.36 294.50 915.57 C 292.59 912.72 291.76 909.34 290.61 906.15 C 286.42 893.41 282.27 880.66 278.30 867.85 C 276.62 862.20 274.21 856.57 274.75 850.55 C 271.93 853.13 268.93 855.52 265.86 857.79 C 261.03 861.61 254.70 862.23 249.01 864.05 C 242.65 866.08 235.87 865.54 229.51 863.85 C 226.13 869.29 220.87 873.85 214.55 875.40 C 207.69 877.31 200.98 880.16 193.78 880.44 C 191.73 885.66 187.74 890.02 182.87 892.77 C 175.16 896.24 167.02 898.62 158.84 900.68 C 154.49 899.33 149.58 898.98 146.00 895.89 C 139.31 890.96 135.97 883.07 132.19 875.95 C 122.95 857.25 114.76 838.03 107.30 818.55 C 105.59 813.79 103.91 808.96 103.03 803.96 C 103.79 798.36 105.21 792.40 109.60 788.47 C 114.63 782.66 122.34 780.97 129.16 778.22 C 132.93 776.72 136.85 775.65 140.80 774.78 C 142.81 767.74 148.46 762.06 155.08 759.16 C 162.62 756.52 170.21 753.91 178.00 752.14 C 182.43 752.55 186.77 754.03 190.78 755.96 C 197.01 747.41 205.40 739.40 216.09 737.20 C 220.70 736.03 225.26 734.44 230.05 734.24 C 234.71 734.21 239.25 735.48 243.69 736.74 C 246.33 734.32 248.94 731.74 252.16 730.13 C 260.23 727.47 268.62 725.92 276.92 724.16 C 279.57 723.48 282.21 724.35 284.75 725.08 C 285.79 723.87 286.83 722.67 287.88 721.48 C 284.33 711.63 281.98 701.41 278.62 691.50 C 274.49 678.63 270.25 665.79 266.27 652.87 C 264.82 648.39 264.66 643.64 264.71 638.97 C 264.11 624.89 270.41 611.07 280.22 601.17 C 290.16 591.49 304.01 585.34 318.03 586.22 C 329.54 585.48 340.63 590.16 349.95 596.58 C 356.03 581.20 367.37 567.75 382.35 560.43 M 393.42 584.42 C 382.57 590.11 374.78 601.08 372.70 613.12 C 372.13 620.17 372.25 627.34 374.37 634.15 C 374.69 634.31 375.32 634.64 375.64 634.81 C 375.30 638.78 376.33 642.65 378.23 646.13 C 377.84 647.05 377.48 647.99 377.15 648.94 L 376.69 649.73 L 377.15 650.67 L 378.03 650.78 C 378.11 651.35 378.26 652.47 378.34 653.03 C 377.20 654.46 377.48 655.34 379.21 655.67 L 379.23 657.04 C 378.16 658.51 378.49 659.37 380.19 659.63 L 380.19 661.06 C 379.15 662.55 379.47 663.41 381.17 663.65 L 381.15 665.09 C 380.12 666.60 380.45 667.45 382.15 667.64 C 382.19 668.21 382.26 669.36 382.29 669.94 L 381.80 670.71 L 382.23 671.69 L 383.11 671.86 C 383.14 672.38 383.19 673.42 383.21 673.94 L 382.74 674.72 L 383.17 675.69 L 384.06 675.84 C 384.09 676.37 384.14 677.43 384.17 677.96 L 383.70 678.74 L 384.14 679.71 L 385.02 679.85 C 385.09 680.39 385.23 681.48 385.29 682.03 C 384.18 683.49 384.47 684.37 386.18 684.67 L 386.19 686.06 C 385.19 687.54 385.52 688.39 387.18 688.62 L 386.95 690.24 C 386.19 691.66 386.60 692.45 388.15 692.60 C 388.09 693.15 387.97 694.24 387.91 694.78 C 390.92 694.87 393.96 694.77 396.94 695.35 C 405.07 697.51 413.52 699.23 420.58 704.09 C 423.87 701.18 427.39 698.54 430.86 695.85 C 436.09 691.82 442.80 690.89 448.97 689.10 C 452.71 687.99 456.62 687.81 460.49 688.11 C 459.61 679.32 458.91 670.50 457.65 661.75 C 456.70 646.91 454.50 632.10 453.38 617.25 C 453.11 617.33 452.57 617.49 452.30 617.56 C 451.12 613.62 451.01 609.42 449.46 605.58 C 445.02 593.91 434.82 584.66 422.86 581.17 C 413.11 578.39 402.31 579.51 393.42 584.42 M 576.01 607.95 C 574.64 612.20 574.32 616.68 573.77 621.09 C 570.90 644.61 568.13 668.15 564.92 691.64 C 577.57 688.64 591.03 688.33 603.45 692.55 C 610.90 694.03 617.31 698.21 623.09 702.95 C 627.45 702.19 631.55 700.21 636.03 700.05 C 642.02 675.72 647.87 651.34 653.42 626.90 C 654.04 622.32 653.82 617.66 653.31 613.09 C 650.89 599.85 641.48 588.05 628.96 583.02 C 622.34 580.23 614.96 579.72 607.90 580.56 C 593.29 582.82 580.46 593.87 576.01 607.95 M 500.12 712.14 C 498.97 740.00 498.99 767.89 500.26 795.74 C 506.12 796.22 511.97 796.79 517.84 797.23 C 517.68 788.06 517.69 778.89 517.69 769.72 C 530.03 766.49 542.85 761.30 550.80 750.84 C 556.89 742.48 557.30 730.23 551.15 721.79 C 546.34 715.32 538.98 710.79 531.09 709.22 C 520.74 707.41 510.08 709.16 500.12 712.14 M 448.43 711.62 C 437.19 715.15 429.87 725.95 426.76 736.84 C 423.56 749.03 424.53 762.05 427.76 774.15 C 430.02 782.41 434.62 790.36 441.96 795.08 C 450.36 800.89 462.59 801.26 470.70 794.72 C 479.97 787.24 485.18 775.67 486.90 764.08 C 488.53 751.49 488.08 738.01 482.49 726.40 C 476.51 714.18 461.47 707.51 448.43 711.62 M 565.81 713.83 C 562.72 741.55 560.50 769.37 559.73 797.25 C 565.53 798.11 571.31 799.12 577.10 800.06 C 577.78 790.86 578.21 781.65 579.15 772.47 C 592.05 770.28 605.73 765.76 614.30 755.30 C 620.44 747.34 621.37 735.51 615.86 726.97 C 611.15 719.78 603.49 714.60 595.11 712.77 C 585.42 710.94 575.39 711.71 565.81 713.83 M 361.13 725.00 C 364.64 752.64 368.95 780.19 374.67 807.47 C 380.53 806.92 386.41 806.61 392.29 806.18 C 390.77 797.11 389.19 788.05 387.78 778.96 C 398.55 774.29 409.16 767.88 415.84 757.96 C 422.01 748.96 421.61 735.83 414.38 727.53 C 408.96 721.54 401.08 717.93 393.07 717.21 C 381.96 716.59 371.01 720.16 361.13 725.00 M 619.99 801.76 C 629.29 803.67 638.37 806.90 647.91 807.44 C 653.85 807.96 659.83 807.52 665.70 806.50 C 665.84 801.97 665.93 797.44 666.06 792.92 C 656.92 792.42 647.74 792.59 638.63 791.55 C 639.79 784.83 640.75 778.08 641.83 771.35 C 650.83 771.81 659.78 772.96 668.72 774.13 C 668.69 769.61 668.73 765.09 668.63 760.57 C 660.56 759.34 652.47 758.13 644.30 757.96 C 645.45 751.21 646.92 744.52 648.18 737.80 C 657.92 738.82 667.60 740.37 677.23 742.16 C 678.18 737.26 679.26 732.39 680.04 727.47 C 664.44 724.46 648.60 722.93 632.73 722.63 C 626.50 748.65 622.76 775.17 619.99 801.76 M 693.29 733.01 C 688.06 759.55 681.96 785.92 674.80 812.02 C 680.40 813.85 686.00 815.66 691.55 817.67 C 694.83 806.76 697.64 795.73 700.65 784.75 C 708.20 798.47 714.47 812.93 720.07 827.56 C 724.91 826.03 729.69 824.34 734.53 822.80 C 730.11 810.59 724.78 798.71 718.92 787.13 C 727.36 784.68 736.07 781.71 742.65 775.65 C 748.76 770.13 750.55 760.97 748.63 753.19 C 746.11 744.40 738.23 738.07 729.78 735.30 C 718.04 731.61 705.41 731.01 693.29 733.01 M 305.08 733.88 C 300.56 745.40 296.66 757.17 293.63 769.16 C 288.62 761.72 284.00 754.00 280.02 745.96 C 273.47 747.26 266.93 748.61 260.41 750.08 C 267.89 762.26 277.01 773.35 286.60 783.92 C 283.10 797.04 280.42 810.39 278.92 823.89 C 284.04 825.13 289.17 826.33 294.30 827.55 C 295.09 816.59 297.32 805.83 299.51 795.09 C 305.08 802.42 310.68 809.72 316.41 816.93 C 322.33 816.32 328.22 815.31 334.12 814.50 C 324.73 803.01 315.25 791.60 305.92 780.07 C 310.04 766.56 314.91 753.27 320.89 740.47 C 315.63 738.25 310.38 736.01 305.08 733.88 M 208.94 767.99 C 203.55 776.60 202.40 787.21 203.60 797.13 C 204.94 807.67 208.24 818.07 213.81 827.16 C 218.62 835.08 226.57 841.50 235.93 842.81 C 244.41 843.84 254.08 841.62 259.54 834.59 C 265.57 826.80 268.12 816.68 267.59 806.93 C 267.29 801.28 264.65 796.15 262.56 791.01 C 252.92 795.01 243.40 799.28 233.78 803.30 C 235.83 806.90 238.13 810.35 240.45 813.79 C 243.53 812.19 246.70 810.80 249.95 809.59 C 250.42 814.33 251.19 819.25 249.85 823.92 C 248.56 828.20 243.24 831.16 239.07 829.07 C 234.96 826.86 232.44 822.69 230.20 818.76 C 225.68 810.15 222.39 800.71 221.81 790.95 C 221.64 785.31 221.59 779.33 224.16 774.17 C 225.63 770.95 230.04 770.04 232.73 772.29 C 238.28 776.59 240.17 783.74 241.74 790.24 C 247.00 788.95 252.26 787.65 257.51 786.34 C 256.53 779.08 255.04 771.44 250.28 765.61 C 240.39 752.56 217.39 754.08 208.94 767.99 M 800.60 819.69 C 798.62 824.02 796.34 828.55 792.43 831.45 C 789.96 833.29 786.09 831.94 785.25 829.02 C 783.47 823.97 785.94 818.92 788.02 814.41 C 783.08 812.29 778.28 809.87 773.29 807.89 C 771.36 811.41 769.50 815.05 768.82 819.05 C 766.92 827.91 770.52 837.82 778.01 843.04 C 784.45 847.83 793.47 849.55 800.78 845.69 C 808.89 841.41 814.90 833.70 818.52 825.38 C 825.32 808.53 831.88 791.55 837.11 774.14 C 830.96 771.11 824.75 768.21 818.54 765.33 C 813.38 783.70 807.53 801.90 800.60 819.69 M 161.67 780.01 C 170.00 796.98 178.07 814.07 185.90 831.27 C 170.75 820.78 157.05 808.40 143.15 796.35 C 137.10 798.64 131.05 800.94 125.03 803.32 C 134.71 829.02 145.22 854.53 158.63 878.54 C 163.48 876.71 168.36 874.98 173.20 873.14 C 165.26 856.17 156.99 839.35 149.12 822.35 C 166.04 832.85 181.42 845.58 196.69 858.29 C 201.30 856.62 206.04 855.34 210.63 853.63 C 201.41 826.61 189.76 800.52 178.95 774.13 C 173.19 776.08 167.41 777.99 161.67 780.01 M 851.56 789.62 C 842.97 794.25 838.68 805.04 840.70 814.42 C 843.63 825.82 852.41 834.32 857.12 844.87 C 859.05 848.79 858.75 854.28 854.91 856.94 C 850.27 859.76 844.03 857.00 841.50 852.56 C 838.34 847.04 837.65 840.51 837.49 834.26 C 832.68 834.21 827.87 834.30 823.07 834.31 C 823.79 842.72 824.92 851.38 828.80 859.00 C 835.65 872.09 853.93 876.79 866.59 869.57 C 872.88 865.73 877.20 858.47 876.96 851.03 C 877.17 844.37 872.86 838.88 869.47 833.55 C 865.94 827.88 860.90 822.88 859.29 816.22 C 857.51 810.01 861.69 802.73 868.11 801.53 C 873.50 800.49 879.13 805.52 878.30 811.06 C 877.59 815.55 874.28 818.98 871.50 822.36 C 876.04 826.42 880.60 830.47 885.12 834.57 C 889.88 831.21 893.82 826.54 895.71 820.98 C 897.51 815.36 896.16 809.30 893.95 804.01 C 887.31 788.47 866.29 781.54 851.56 789.62 M 412.91 795.65 C 413.95 800.79 415.03 805.93 416.39 811.01 C 415.18 812.45 415.45 813.33 417.20 813.66 C 417.27 814.93 417.43 816.20 417.69 817.46 C 418.48 817.24 420.06 816.81 420.86 816.59 L 421.61 817.15 L 422.62 816.80 L 422.83 815.93 C 423.37 815.85 424.45 815.70 424.99 815.62 C 426.42 816.79 427.31 816.51 427.65 814.79 L 429.21 814.67 C 430.71 815.42 431.12 815.07 430.44 813.62 C 423.48 808.80 417.83 802.47 412.91 795.65 M 596.67 809.95 C 597.76 810.08 598.89 810.37 600.02 810.26 C 599.62 808.07 599.08 805.92 598.63 803.76 C 597.85 805.78 597.18 807.84 596.67 809.95 M 479.51 827.39 C 479.53 839.26 479.11 851.13 479.23 863.00 C 478.99 869.79 467.55 870.66 466.21 864.04 C 465.24 852.05 465.97 839.98 465.76 827.97 C 458.92 828.25 452.08 828.51 445.27 829.20 C 445.15 844.88 445.53 860.58 444.80 876.25 C 444.01 880.48 438.41 882.41 434.95 880.09 C 432.82 878.84 431.59 876.42 431.77 873.97 C 431.28 859.35 431.55 844.71 431.55 830.09 C 425.08 830.64 418.61 831.23 412.17 832.05 C 411.64 842.89 412.49 853.78 411.51 864.60 C 409.53 870.98 398.87 869.57 398.53 862.91 C 398.60 853.08 398.30 843.26 398.25 833.43 C 391.39 834.44 384.53 835.37 377.65 836.18 C 376.55 849.74 378.08 863.42 376.56 876.95 C 374.69 882.66 364.83 882.26 364.01 876.09 C 363.34 863.61 364.13 851.07 363.45 838.58 C 356.98 839.66 350.37 840.26 344.04 841.97 C 343.07 849.62 344.61 857.46 343.13 865.06 C 340.89 870.55 331.93 869.72 330.47 864.01 C 329.85 857.53 330.64 850.99 329.96 844.51 C 318.81 846.87 307.69 849.38 296.63 852.14 C 301.58 869.06 307.05 885.82 312.23 902.68 C 325.85 901.07 339.37 898.76 352.99 897.16 C 393.48 892.06 434.19 888.66 474.96 887.01 C 490.61 886.34 506.27 886.71 521.92 886.28 C 574.93 886.14 627.96 889.82 680.43 897.44 C 691.62 898.89 702.70 901.18 713.90 902.56 C 716.52 885.59 719.09 868.61 721.63 851.63 C 710.59 848.88 699.46 846.52 688.29 844.38 C 687.95 851.19 688.85 858.09 687.73 864.84 C 686.34 870.65 676.78 870.67 675.25 864.99 C 674.31 857.26 675.15 849.46 674.44 841.72 C 667.41 840.40 660.34 839.36 653.30 838.17 C 652.71 850.12 653.29 862.09 652.77 874.05 C 653.05 877.68 649.66 881.13 646.00 880.79 C 643.01 880.99 640.36 878.70 639.42 875.99 C 638.72 862.68 639.25 849.34 638.82 836.02 C 632.14 835.06 625.45 834.23 618.76 833.42 C 618.70 842.28 618.82 851.14 618.71 860.01 C 618.61 862.81 618.42 866.24 615.66 867.77 C 611.53 870.69 604.65 867.25 605.24 862.04 C 605.21 852.00 605.42 841.95 604.95 831.92 C 597.64 831.23 590.34 830.33 583.00 829.93 C 582.99 843.62 583.01 857.30 583.00 870.99 C 582.86 874.11 583.23 878.16 580.03 879.96 C 576.00 882.87 569.75 879.85 569.54 874.90 C 569.47 859.64 569.47 844.37 569.55 829.11 C 561.58 828.12 553.52 828.09 545.51 827.70 C 545.57 837.47 545.44 847.23 545.25 857.00 C 544.99 860.21 546.22 864.12 543.65 866.67 C 540.34 870.65 532.08 868.74 532.15 863.13 C 531.44 851.11 531.85 839.05 531.76 827.02 C 524.92 826.93 518.08 827.13 511.24 826.87 C 511.29 842.60 510.96 858.33 510.88 874.06 C 511.37 878.29 507.03 881.75 503.00 880.94 C 500.65 880.70 499.19 878.68 497.70 877.11 C 497.98 860.40 497.49 843.70 497.50 827.00 C 491.50 826.89 485.51 827.22 479.51 827.39 M 539.84 908.00 C 538.66 917.27 537.65 926.58 536.49 935.86 C 535.54 945.84 533.33 955.70 533.23 965.74 C 545.58 969.08 558.28 971.28 571.00 972.51 C 573.56 965.00 574.72 957.12 576.70 949.46 C 579.64 936.19 583.25 923.06 585.75 909.70 C 570.46 908.80 555.15 908.07 539.84 908.00 M 440.51 910.55 C 444.86 930.93 450.25 951.09 454.12 971.58 C 461.20 971.00 468.11 969.29 475.15 968.40 C 480.29 967.47 485.56 967.13 490.63 965.81 C 491.85 962.42 491.49 958.71 491.42 955.17 C 490.46 939.45 488.24 923.85 486.36 908.22 C 471.07 908.76 455.77 909.40 440.51 910.55 Z" />
<path fill="#c83b50" opacity="1.00" d=" M 518.93 723.18 C 522.77 722.76 527.12 722.11 530.44 724.64 C 536.86 728.75 538.19 738.09 534.40 744.42 C 530.87 750.45 524.34 753.94 517.82 755.80 C 517.91 744.92 518.54 734.05 518.93 723.18 Z" />
<path fill="#c83b50" opacity="1.00" d=" M 453.31 725.47 C 456.68 724.02 460.51 725.70 462.78 728.33 C 467.13 733.15 468.37 739.84 469.13 746.09 C 470.10 756.38 470.05 767.20 465.92 776.87 C 464.57 779.89 462.86 783.15 459.73 784.63 C 456.60 786.06 453.02 784.45 450.84 782.10 C 446.74 777.77 445.12 771.78 444.12 766.06 C 442.47 755.75 441.98 744.83 445.71 734.90 C 447.21 731.14 449.35 727.07 453.31 725.47 Z" />
<path fill="#c83b50" opacity="1.00" d=" M 583.72 727.44 C 583.87 725.36 586.68 726.53 588.02 726.20 C 596.01 725.89 601.76 734.56 600.21 742.00 C 598.83 751.67 589.00 756.97 580.28 758.77 C 581.23 748.31 582.33 737.85 583.72 727.44 Z" />
<path fill="#c83b50" opacity="1.00" d=" M 381.66 732.84 C 385.26 731.91 389.19 730.52 392.79 732.23 C 399.97 735.06 403.07 744.11 400.39 751.08 C 397.86 757.63 392.04 762.45 385.66 765.05 C 384.21 754.32 382.76 743.60 381.66 732.84 Z" />
<path fill="#c83b50" opacity="1.00" d=" M 710.14 746.96 C 716.71 746.88 724.25 746.92 729.44 751.57 C 733.60 755.24 733.13 762.41 728.86 765.83 C 721.60 771.82 712.19 774.37 703.12 776.11 C 705.43 766.39 707.88 756.69 710.14 746.96 Z" />
</g>
<g id="#ffe69dff">
<path fill="#ffe69d" opacity="1.00" d=" M 501.19 50.21 C 518.40 34.58 541.68 25.32 565.03 26.26 C 584.43 26.37 603.67 33.27 618.99 45.12 C 634.43 56.76 645.88 73.44 651.44 91.94 C 652.80 95.95 653.37 100.19 654.93 104.13 C 657.19 108.71 662.00 111.09 665.76 114.26 C 693.28 135.74 712.56 167.60 718.19 202.09 C 724.73 239.20 715.51 278.78 693.16 309.12 C 685.98 319.06 677.31 327.84 668.05 335.85 C 668.39 331.62 669.10 327.02 666.89 323.16 C 663.76 317.39 655.88 314.77 650.00 317.83 C 646.00 319.68 643.40 323.73 642.87 328.05 C 641.63 336.02 639.22 343.75 636.22 351.23 C 625.24 380.47 601.93 404.06 574.55 418.49 C 560.02 426.07 544.04 430.74 527.80 432.72 C 513.52 433.75 499.01 433.77 484.97 430.58 C 452.59 423.74 422.39 404.77 403.75 377.21 C 396.04 365.66 390.09 352.62 388.38 338.73 C 387.89 335.09 387.22 331.12 384.41 328.49 C 379.43 323.11 369.75 323.60 365.28 329.39 C 362.82 332.28 362.03 336.25 362.50 339.95 C 363.37 350.15 366.32 360.02 369.98 369.53 C 345.19 364.92 321.55 353.99 302.21 337.77 C 275.24 315.26 256.76 282.76 251.42 248.03 C 244.51 204.92 258.04 158.94 287.80 126.90 C 296.09 118.17 304.92 109.82 315.14 103.37 C 314.29 110.95 313.71 118.74 315.66 126.21 C 317.42 131.23 322.67 134.82 328.01 134.55 C 334.18 134.63 340.46 129.34 340.26 122.93 C 340.32 116.24 339.89 109.36 342.10 102.93 C 345.51 91.68 353.01 82.36 360.54 73.58 C 372.38 60.92 389.60 53.36 406.98 53.71 C 424.68 53.71 442.12 61.75 453.78 75.02 C 447.16 95.19 448.61 117.53 456.85 137.00 C 459.49 142.75 461.51 149.23 466.44 153.50 C 472.98 158.73 483.98 155.34 486.24 147.22 C 488.46 141.90 485.27 136.68 483.10 131.96 C 477.63 120.93 474.39 108.51 475.78 96.14 C 477.26 78.04 488.22 62.25 501.19 50.21 M 574.40 249.57 C 569.27 251.02 565.14 254.81 562.12 259.09 C 558.94 263.72 558.53 269.62 559.21 275.05 C 560.69 284.92 569.92 293.15 580.00 293.03 C 587.15 293.65 594.22 290.11 598.61 284.55 C 605.25 276.10 604.42 262.76 596.78 255.19 C 591.14 249.30 582.13 247.38 574.40 249.57 M 413.42 250.56 C 407.91 252.41 403.11 256.42 400.43 261.60 C 396.98 267.96 397.17 276.05 400.48 282.43 C 403.85 288.47 409.99 293.10 416.94 293.97 C 423.97 295.06 431.45 292.45 436.24 287.19 C 440.85 282.44 442.95 275.51 442.07 268.98 C 441.16 261.28 435.83 254.24 428.63 251.34 C 423.87 249.27 418.38 249.27 413.42 250.56 M 481.02 320.51 C 468.68 320.61 456.34 320.29 444.01 320.67 C 446.30 332.51 450.89 344.06 458.53 353.49 C 468.48 366.21 483.69 375.18 499.98 376.03 C 513.13 376.98 526.47 372.84 536.92 364.83 C 551.03 354.37 559.83 337.92 562.93 320.81 C 560.28 320.57 557.63 320.44 554.98 320.48 C 530.32 320.71 505.67 319.75 481.02 320.51 Z" />
</g>
<g id="#f3909fff">
<path fill="#f3909f" opacity="1.00" d=" M 642.43 421.58 C 648.68 419.19 656.80 422.05 659.35 428.45 C 661.68 434.00 659.02 439.87 656.96 445.07 C 651.16 458.21 643.66 470.59 635.14 482.15 C 625.99 493.91 615.42 504.94 602.47 512.53 C 597.46 515.25 591.55 518.27 585.76 516.20 C 576.83 513.09 574.48 498.88 582.72 493.71 C 589.08 489.89 595.53 486.12 601.15 481.22 C 608.39 475.04 613.80 467.11 619.30 459.42 C 624.93 451.56 629.72 443.06 633.22 434.03 C 635.13 429.25 637.07 423.44 642.43 421.58 Z" />
<path fill="#f3909f" opacity="1.00" d=" M 366.39 423.43 C 370.47 422.16 375.36 422.41 378.78 425.21 C 381.95 427.72 383.16 431.76 384.73 435.32 C 388.35 444.74 393.30 453.63 399.22 461.80 C 404.85 469.65 410.42 477.76 417.98 483.92 C 423.32 488.50 429.46 491.99 435.47 495.59 C 439.60 498.12 441.21 503.35 440.36 507.95 C 439.52 514.30 433.47 519.79 426.89 518.71 C 418.82 517.32 411.91 512.36 405.56 507.45 C 389.87 494.87 377.80 478.37 368.14 460.86 C 364.21 453.61 360.24 446.20 358.25 438.15 C 356.67 432.04 360.29 425.24 366.39 423.43 Z" />
<path fill="#f3909f" opacity="1.00" d=" M 448.38 512.47 C 452.25 510.82 456.85 511.23 460.40 513.49 C 463.82 515.61 467.99 517.25 469.92 521.04 C 473.73 527.65 470.75 537.89 462.94 539.88 C 456.05 541.78 449.58 537.73 444.45 533.62 C 437.83 527.70 440.10 515.64 448.38 512.47 Z" />
<path fill="#f3909f" opacity="1.00" d=" M 561.41 512.45 C 566.63 510.12 573.26 511.79 576.68 516.40 C 581.10 521.87 579.80 530.98 573.89 534.86 C 569.00 538.12 563.27 541.69 557.14 539.84 C 548.70 537.83 545.74 526.31 550.75 519.75 C 553.51 516.35 557.67 514.54 561.41 512.45 Z" />
<path fill="#f3909f" opacity="1.00" d=" M 377.15 648.94 C 377.37 649.40 377.81 650.32 378.03 650.78 L 377.15 650.67 L 376.69 649.73 L 377.15 648.94 Z" />
<path fill="#f3909f" opacity="1.00" d=" M 378.34 653.03 C 379.04 653.77 379.33 654.65 379.21 655.67 C 377.48 655.34 377.20 654.46 378.34 653.03 Z" />
<path fill="#f3909f" opacity="1.00" d=" M 379.23 657.04 C 379.99 657.73 380.32 658.60 380.19 659.63 C 378.49 659.37 378.16 658.51 379.23 657.04 Z" />
<path fill="#f3909f" opacity="1.00" d=" M 380.19 661.06 C 380.97 661.75 381.30 662.61 381.17 663.65 C 379.47 663.41 379.15 662.55 380.19 661.06 Z" />
<path fill="#f3909f" opacity="1.00" d=" M 381.15 665.09 C 381.95 665.76 382.28 666.61 382.15 667.64 C 380.45 667.45 380.12 666.60 381.15 665.09 Z" />
<path fill="#f3909f" opacity="1.00" d=" M 382.29 669.94 C 382.50 670.42 382.91 671.38 383.11 671.86 L 382.23 671.69 L 381.80 670.71 L 382.29 669.94 Z" />
<path fill="#f3909f" opacity="1.00" d=" M 383.21 673.94 C 383.43 674.41 383.85 675.36 384.06 675.84 L 383.17 675.69 L 382.74 674.72 L 383.21 673.94 Z" />
<path fill="#f3909f" opacity="1.00" d=" M 384.17 677.96 C 384.38 678.43 384.81 679.37 385.02 679.85 L 384.14 679.71 L 383.70 678.74 L 384.17 677.96 Z" />
<path fill="#f3909f" opacity="1.00" d=" M 385.29 682.03 C 386.01 682.76 386.31 683.64 386.18 684.67 C 384.47 684.37 384.18 683.49 385.29 682.03 Z" />
<path fill="#f3909f" opacity="1.00" d=" M 386.19 686.06 C 387.05 686.73 387.38 687.59 387.18 688.62 C 385.52 688.39 385.19 687.54 386.19 686.06 Z" />
<path fill="#f3909f" opacity="1.00" d=" M 386.95 690.24 C 388.05 690.61 388.45 691.40 388.15 692.60 C 386.60 692.45 386.19 691.66 386.95 690.24 Z" />
<path fill="#f3909f" opacity="1.00" d=" M 416.39 811.01 C 417.02 811.77 417.29 812.65 417.20 813.66 C 415.45 813.33 415.18 812.45 416.39 811.01 Z" />
<path fill="#f3909f" opacity="1.00" d=" M 429.21 814.67 C 429.52 814.41 430.13 813.89 430.44 813.62 C 431.12 815.07 430.71 815.42 429.21 814.67 Z" />
<path fill="#f3909f" opacity="1.00" d=" M 424.99 815.62 C 425.75 814.95 426.64 814.68 427.65 814.79 C 427.31 816.51 426.42 816.79 424.99 815.62 Z" />
<path fill="#f3909f" opacity="1.00" d=" M 420.86 816.59 C 421.35 816.43 422.34 816.09 422.83 815.93 L 422.62 816.80 L 421.61 817.15 L 420.86 816.59 Z" />
</g>
<g id="#ffffffff">
<path fill="#ffffff" opacity="1.00" d=" M 393.42 584.42 C 402.31 579.51 413.11 578.39 422.86 581.17 C 434.82 584.66 445.02 593.91 449.46 605.58 C 451.01 609.42 451.12 613.62 452.30 617.56 C 453.30 620.95 453.88 624.46 453.79 628.00 C 453.75 639.38 456.65 650.46 457.65 661.75 C 458.91 670.50 459.61 679.32 460.49 688.11 C 456.62 687.81 452.71 687.99 448.97 689.10 C 442.80 690.89 436.09 691.82 430.86 695.85 C 427.39 698.54 423.87 701.18 420.58 704.09 C 413.52 699.23 405.07 697.51 396.94 695.35 C 393.96 694.77 390.92 694.87 387.91 694.78 C 387.97 694.24 388.09 693.15 388.15 692.60 C 388.45 691.40 388.05 690.61 386.95 690.24 L 387.18 688.62 C 387.38 687.59 387.05 686.73 386.19 686.06 L 386.18 684.67 C 386.31 683.64 386.01 682.76 385.29 682.03 C 385.23 681.48 385.09 680.39 385.02 679.85 C 384.81 679.37 384.38 678.43 384.17 677.96 C 384.14 677.43 384.09 676.37 384.06 675.84 C 383.85 675.36 383.43 674.41 383.21 673.94 C 383.19 673.42 383.14 672.38 383.11 671.86 C 382.91 671.38 382.50 670.42 382.29 669.94 C 382.26 669.36 382.19 668.21 382.15 667.64 C 382.28 666.61 381.95 665.76 381.15 665.09 L 381.17 663.65 C 381.30 662.61 380.97 661.75 380.19 661.06 L 380.19 659.63 C 380.32 658.60 379.99 657.73 379.23 657.04 L 379.21 655.67 C 379.33 654.65 379.04 653.77 378.34 653.03 C 378.26 652.47 378.11 651.35 378.03 650.78 C 377.81 650.32 377.37 649.40 377.15 648.94 C 377.48 647.99 377.84 647.05 378.23 646.13 C 376.33 642.65 375.30 638.78 375.64 634.81 C 375.32 634.64 374.69 634.31 374.37 634.15 C 372.25 627.34 372.13 620.17 372.70 613.12 C 374.78 601.08 382.57 590.11 393.42 584.42 Z" />
<path fill="#ffffff" opacity="1.00" d=" M 576.01 607.95 C 580.46 593.87 593.29 582.82 607.90 580.56 C 614.96 579.72 622.34 580.23 628.96 583.02 C 641.48 588.05 650.89 599.85 653.31 613.09 C 653.82 617.66 654.04 622.32 653.42 626.90 C 647.87 651.34 642.02 675.72 636.03 700.05 C 631.55 700.21 627.45 702.19 623.09 702.95 C 617.31 698.21 610.90 694.03 603.45 692.55 C 591.03 688.33 577.57 688.64 564.92 691.64 C 568.13 668.15 570.90 644.61 573.77 621.09 C 574.32 616.68 574.64 612.20 576.01 607.95 Z" />
<path fill="#ffffff" opacity="1.00" d=" M 500.12 712.14 C 510.08 709.16 520.74 707.41 531.09 709.22 C 538.98 710.79 546.34 715.32 551.15 721.79 C 557.30 730.23 556.89 742.48 550.80 750.84 C 542.85 761.30 530.03 766.49 517.69 769.72 C 517.69 778.89 517.68 788.06 517.84 797.23 C 511.97 796.79 506.12 796.22 500.26 795.74 C 498.99 767.89 498.97 740.00 500.12 712.14 M 518.93 723.18 C 518.54 734.05 517.91 744.92 517.82 755.80 C 524.34 753.94 530.87 750.45 534.40 744.42 C 538.19 738.09 536.86 728.75 530.44 724.64 C 527.12 722.11 522.77 722.76 518.93 723.18 Z" />
<path fill="#ffffff" opacity="1.00" d=" M 448.43 711.62 C 461.47 707.51 476.51 714.18 482.49 726.40 C 488.08 738.01 488.53 751.49 486.90 764.08 C 485.18 775.67 479.97 787.24 470.70 794.72 C 462.59 801.26 450.36 800.89 441.96 795.08 C 434.62 790.36 430.02 782.41 427.76 774.15 C 424.53 762.05 423.56 749.03 426.76 736.84 C 429.87 725.95 437.19 715.15 448.43 711.62 M 453.31 725.47 C 449.35 727.07 447.21 731.14 445.71 734.90 C 441.98 744.83 442.47 755.75 444.12 766.06 C 445.12 771.78 446.74 777.77 450.84 782.10 C 453.02 784.45 456.60 786.06 459.73 784.63 C 462.86 783.15 464.57 779.89 465.92 776.87 C 470.05 767.20 470.10 756.38 469.13 746.09 C 468.37 739.84 467.13 733.15 462.78 728.33 C 460.51 725.70 456.68 724.02 453.31 725.47 Z" />
<path fill="#ffffff" opacity="1.00" d=" M 565.81 713.83 C 575.39 711.71 585.42 710.94 595.11 712.77 C 603.49 714.60 611.15 719.78 615.86 726.97 C 621.37 735.51 620.44 747.34 614.30 755.30 C 605.73 765.76 592.05 770.28 579.15 772.47 C 578.21 781.65 577.78 790.86 577.10 800.06 C 571.31 799.12 565.53 798.11 559.73 797.25 C 560.50 769.37 562.72 741.55 565.81 713.83 M 583.72 727.44 C 582.33 737.85 581.23 748.31 580.28 758.77 C 589.00 756.97 598.83 751.67 600.21 742.00 C 601.76 734.56 596.01 725.89 588.02 726.20 C 586.68 726.53 583.87 725.36 583.72 727.44 Z" />
<path fill="#ffffff" opacity="1.00" d=" M 361.13 725.00 C 371.01 720.16 381.96 716.59 393.07 717.21 C 401.08 717.93 408.96 721.54 414.38 727.53 C 421.61 735.83 422.01 748.96 415.84 757.96 C 409.16 767.88 398.55 774.29 387.78 778.96 C 389.19 788.05 390.77 797.11 392.29 806.18 C 386.41 806.61 380.53 806.92 374.67 807.47 C 368.95 780.19 364.64 752.64 361.13 725.00 M 381.66 732.84 C 382.76 743.60 384.21 754.32 385.66 765.05 C 392.04 762.45 397.86 757.63 400.39 751.08 C 403.07 744.11 399.97 735.06 392.79 732.23 C 389.19 730.52 385.26 731.91 381.66 732.84 Z" />
<path fill="#ffffff" opacity="1.00" d=" M 619.99 801.76 C 622.76 775.17 626.50 748.65 632.73 722.63 C 648.60 722.93 664.44 724.46 680.04 727.47 C 679.26 732.39 678.18 737.26 677.23 742.16 C 667.60 740.37 657.92 738.82 648.18 737.80 C 646.92 744.52 645.45 751.21 644.30 757.96 C 652.47 758.13 660.56 759.34 668.63 760.57 C 668.73 765.09 668.69 769.61 668.72 774.13 C 659.78 772.96 650.83 771.81 641.83 771.35 C 640.75 778.08 639.79 784.83 638.63 791.55 C 647.74 792.59 656.92 792.42 666.06 792.92 C 665.93 797.44 665.84 801.97 665.70 806.50 C 659.83 807.52 653.85 807.96 647.91 807.44 C 638.37 806.90 629.29 803.67 619.99 801.76 Z" />
<path fill="#ffffff" opacity="1.00" d=" M 693.29 733.01 C 705.41 731.01 718.04 731.61 729.78 735.30 C 738.23 738.07 746.11 744.40 748.63 753.19 C 750.55 760.97 748.76 770.13 742.65 775.65 C 736.07 781.71 727.36 784.68 718.92 787.13 C 724.78 798.71 730.11 810.59 734.53 822.80 C 729.69 824.34 724.91 826.03 720.07 827.56 C 714.47 812.93 708.20 798.47 700.65 784.75 C 697.64 795.73 694.83 806.76 691.55 817.67 C 686.00 815.66 680.40 813.85 674.80 812.02 C 681.96 785.92 688.06 759.55 693.29 733.01 M 710.14 746.96 C 707.88 756.69 705.43 766.39 703.12 776.11 C 712.19 774.37 721.60 771.82 728.86 765.83 C 733.13 762.41 733.60 755.24 729.44 751.57 C 724.25 746.92 716.71 746.88 710.14 746.96 Z" />
<path fill="#ffffff" opacity="1.00" d=" M 305.08 733.88 C 310.38 736.01 315.63 738.25 320.89 740.47 C 314.91 753.27 310.04 766.56 305.92 780.07 C 315.25 791.60 324.73 803.01 334.12 814.50 C 328.22 815.31 322.33 816.32 316.41 816.93 C 310.68 809.72 305.08 802.42 299.51 795.09 C 297.32 805.83 295.09 816.59 294.30 827.55 C 289.17 826.33 284.04 825.13 278.92 823.89 C 280.42 810.39 283.10 797.04 286.60 783.92 C 277.01 773.35 267.89 762.26 260.41 750.08 C 266.93 748.61 273.47 747.26 280.02 745.96 C 284.00 754.00 288.62 761.72 293.63 769.16 C 296.66 757.17 300.56 745.40 305.08 733.88 Z" />
<path fill="#ffffff" opacity="1.00" d=" M 208.94 767.99 C 217.39 754.08 240.39 752.56 250.28 765.61 C 255.04 771.44 256.53 779.08 257.51 786.34 C 252.26 787.65 247.00 788.95 241.74 790.24 C 240.17 783.74 238.28 776.59 232.73 772.29 C 230.04 770.04 225.63 770.95 224.16 774.17 C 221.59 779.33 221.64 785.31 221.81 790.95 C 222.39 800.71 225.68 810.15 230.20 818.76 C 232.44 822.69 234.96 826.86 239.07 829.07 C 243.24 831.16 248.56 828.20 249.85 823.92 C 251.19 819.25 250.42 814.33 249.95 809.59 C 246.70 810.80 243.53 812.19 240.45 813.79 C 238.13 810.35 235.83 806.90 233.78 803.30 C 243.40 799.28 252.92 795.01 262.56 791.01 C 264.65 796.15 267.29 801.28 267.59 806.93 C 268.12 816.68 265.57 826.80 259.54 834.59 C 254.08 841.62 244.41 843.84 235.93 842.81 C 226.57 841.50 218.62 835.08 213.81 827.16 C 208.24 818.07 204.94 807.67 203.60 797.13 C 202.40 787.21 203.55 776.60 208.94 767.99 Z" />
<path fill="#ffffff" opacity="1.00" d=" M 800.60 819.69 C 807.53 801.90 813.38 783.70 818.54 765.33 C 824.75 768.21 830.96 771.11 837.11 774.14 C 831.88 791.55 825.32 808.53 818.52 825.38 C 814.90 833.70 808.89 841.41 800.78 845.69 C 793.47 849.55 784.45 847.83 778.01 843.04 C 770.52 837.82 766.92 827.91 768.82 819.05 C 769.50 815.05 771.36 811.41 773.29 807.89 C 778.28 809.87 783.08 812.29 788.02 814.41 C 785.94 818.92 783.47 823.97 785.25 829.02 C 786.09 831.94 789.96 833.29 792.43 831.45 C 796.34 828.55 798.62 824.02 800.60 819.69 Z" />
<path fill="#ffffff" opacity="1.00" d=" M 161.67 780.01 C 167.41 777.99 173.19 776.08 178.95 774.13 C 189.76 800.52 201.41 826.61 210.63 853.63 C 206.04 855.34 201.30 856.62 196.69 858.29 C 181.42 845.58 166.04 832.85 149.12 822.35 C 156.99 839.35 165.26 856.17 173.20 873.14 C 168.36 874.98 163.48 876.71 158.63 878.54 C 145.22 854.53 134.71 829.02 125.03 803.32 C 131.05 800.94 137.10 798.64 143.15 796.35 C 157.05 808.40 170.75 820.78 185.90 831.27 C 178.07 814.07 170.00 796.98 161.67 780.01 Z" />
<path fill="#ffffff" opacity="1.00" d=" M 851.56 789.62 C 866.29 781.54 887.31 788.47 893.95 804.01 C 896.16 809.30 897.51 815.36 895.71 820.98 C 893.82 826.54 889.88 831.21 885.12 834.57 C 880.60 830.47 876.04 826.42 871.50 822.36 C 874.28 818.98 877.59 815.55 878.30 811.06 C 879.13 805.52 873.50 800.49 868.11 801.53 C 861.69 802.73 857.51 810.01 859.29 816.22 C 860.90 822.88 865.94 827.88 869.47 833.55 C 872.86 838.88 877.17 844.37 876.96 851.03 C 877.20 858.47 872.88 865.73 866.59 869.57 C 853.93 876.79 835.65 872.09 828.80 859.00 C 824.92 851.38 823.79 842.72 823.07 834.31 C 827.87 834.30 832.68 834.21 837.49 834.26 C 837.65 840.51 838.34 847.04 841.50 852.56 C 844.03 857.00 850.27 859.76 854.91 856.94 C 858.75 854.28 859.05 848.79 857.12 844.87 C 852.41 834.32 843.63 825.82 840.70 814.42 C 838.68 805.04 842.97 794.25 851.56 789.62 Z" />
<path fill="#ffffff" opacity="1.00" d=" M 412.91 795.65 C 417.83 802.47 423.48 808.80 430.44 813.62 C 430.13 813.89 429.52 814.41 429.21 814.67 L 427.65 814.79 C 426.64 814.68 425.75 814.95 424.99 815.62 C 424.45 815.70 423.37 815.85 422.83 815.93 C 422.34 816.09 421.35 816.43 420.86 816.59 C 420.06 816.81 418.48 817.24 417.69 817.46 C 417.43 816.20 417.27 814.93 417.20 813.66 C 417.29 812.65 417.02 811.77 416.39 811.01 C 415.03 805.93 413.95 800.79 412.91 795.65 Z" />
<path fill="#ffffff" opacity="1.00" d=" M 596.67 809.95 C 597.18 807.84 597.85 805.78 598.63 803.76 C 599.08 805.92 599.62 808.07 600.02 810.26 C 598.89 810.37 597.76 810.08 596.67 809.95 Z" />
<path fill="#ffffff" opacity="1.00" d=" M 479.51 827.39 C 485.51 827.22 491.50 826.89 497.50 827.00 C 497.49 843.70 497.98 860.40 497.70 877.11 C 499.19 878.68 500.65 880.70 503.00 880.94 C 507.03 881.75 511.37 878.29 510.88 874.06 C 510.96 858.33 511.29 842.60 511.24 826.87 C 518.08 827.13 524.92 826.93 531.76 827.02 C 531.85 839.05 531.44 851.11 532.15 863.13 C 532.08 868.74 540.34 870.65 543.65 866.67 C 546.22 864.12 544.99 860.21 545.25 857.00 C 545.44 847.23 545.57 837.47 545.51 827.70 C 553.52 828.09 561.58 828.12 569.55 829.11 C 569.47 844.37 569.47 859.64 569.54 874.90 C 569.75 879.85 576.00 882.87 580.03 879.96 C 583.23 878.16 582.86 874.11 583.00 870.99 C 583.01 857.30 582.99 843.62 583.00 829.93 C 590.34 830.33 597.64 831.23 604.95 831.92 C 605.42 841.95 605.21 852.00 605.24 862.04 C 604.65 867.25 611.53 870.69 615.66 867.77 C 618.42 866.24 618.61 862.81 618.71 860.01 C 618.82 851.14 618.70 842.28 618.76 833.42 C 625.45 834.23 632.14 835.06 638.82 836.02 C 639.25 849.34 638.72 862.68 639.42 875.99 C 640.36 878.70 643.01 880.99 646.00 880.79 C 649.66 881.13 653.05 877.68 652.77 874.05 C 653.29 862.09 652.71 850.12 653.30 838.17 C 660.34 839.36 667.41 840.40 674.44 841.72 C 675.15 849.46 674.31 857.26 675.25 864.99 C 676.78 870.67 686.34 870.65 687.73 864.84 C 688.85 858.09 687.95 851.19 688.29 844.38 C 699.46 846.52 710.59 848.88 721.63 851.63 C 719.09 868.61 716.52 885.59 713.90 902.56 C 702.70 901.18 691.62 898.89 680.43 897.44 C 627.96 889.82 574.93 886.14 521.92 886.28 C 506.27 886.71 490.61 886.34 474.96 887.01 C 434.19 888.66 393.48 892.06 352.99 897.16 C 339.37 898.76 325.85 901.07 312.23 902.68 C 307.05 885.82 301.58 869.06 296.63 852.14 C 307.69 849.38 318.81 846.87 329.96 844.51 C 330.64 850.99 329.85 857.53 330.47 864.01 C 331.93 869.72 340.89 870.55 343.13 865.06 C 344.61 857.46 343.07 849.62 344.04 841.97 C 350.37 840.26 356.98 839.66 363.45 838.58 C 364.13 851.07 363.34 863.61 364.01 876.09 C 364.83 882.26 374.69 882.66 376.56 876.95 C 378.08 863.42 376.55 849.74 377.65 836.18 C 384.53 835.37 391.39 834.44 398.25 833.43 C 398.30 843.26 398.60 853.08 398.53 862.91 C 398.87 869.57 409.53 870.98 411.51 864.60 C 412.49 853.78 411.64 842.89 412.17 832.05 C 418.61 831.23 425.08 830.64 431.55 830.09 C 431.55 844.71 431.28 859.35 431.77 873.97 C 431.59 876.42 432.82 878.84 434.95 880.09 C 438.41 882.41 444.01 880.48 444.80 876.25 C 445.53 860.58 445.15 844.88 445.27 829.20 C 452.08 828.51 458.92 828.25 465.76 827.97 C 465.97 839.98 465.24 852.05 466.21 864.04 C 467.55 870.66 478.99 869.79 479.23 863.00 C 479.11 851.13 479.53 839.26 479.51 827.39 Z" />
<path fill="#ffffff" opacity="1.00" d=" M 539.84 908.00 C 555.15 908.07 570.46 908.80 585.75 909.70 C 583.25 923.06 579.64 936.19 576.70 949.46 C 574.72 957.12 573.56 965.00 571.00 972.51 C 558.28 971.28 545.58 969.08 533.23 965.74 C 533.33 955.70 535.54 945.84 536.49 935.86 C 537.65 926.58 538.66 917.27 539.84 908.00 Z" />
<path fill="#ffffff" opacity="1.00" d=" M 440.51 910.55 C 455.77 909.40 471.07 908.76 486.36 908.22 C 488.24 923.85 490.46 939.45 491.42 955.17 C 491.49 958.71 491.85 962.42 490.63 965.81 C 485.56 967.13 480.29 967.47 475.15 968.40 C 468.11 969.29 461.20 971.00 454.12 971.58 C 450.25 951.09 444.86 930.93 440.51 910.55 Z" />
</g>
</svg>
