<?xml version="1.0" encoding="UTF-8" ?>
<!DOCTYPE svg PUBLIC "-//W3C//DTD SVG 1.1//EN" "http://www.w3.org/Graphics/SVG/1.1/DTD/svg11.dtd">
<svg width="512pt" height="512pt" viewBox="0 0 512 512" version="1.1" xmlns="http://www.w3.org/2000/svg">
<g id="#c83b50ff">
<path fill="#c83b50" opacity="1.00" d=" M 261.08 36.12 C 280.90 21.45 305.10 12.10 329.95 12.04 C 353.23 11.27 376.60 18.21 395.96 31.10 C 419.09 46.40 436.47 70.30 443.53 97.15 C 443.92 98.70 444.30 100.43 445.85 101.24 C 468.72 118.42 486.92 141.75 497.99 168.13 C 514.23 206.41 514.94 250.99 499.81 289.74 C 485.72 326.45 457.78 357.59 422.82 375.58 C 420.33 376.51 419.49 379.16 418.21 381.23 C 403.42 406.05 381.66 426.66 356.07 440.05 C 353.04 441.53 350.95 444.26 348.57 446.55 C 333.53 461.54 318.58 476.62 303.49 491.56 C 291.58 503.11 270.58 502.97 258.88 491.18 C 242.98 475.41 227.20 459.51 211.33 443.69 C 208.26 440.70 205.50 437.29 201.68 435.21 C 185.42 425.43 171.13 412.54 159.32 397.72 C 124.73 395.86 90.88 382.83 63.96 361.03 C 39.31 341.24 20.40 314.35 10.28 284.38 C -1.45 249.98 -1.53 211.73 10.13 177.29 C 25.38 131.25 61.77 92.83 106.92 75.11 C 109.90 74.29 111.37 71.40 113.30 69.25 C 127.44 52.51 148.18 41.49 169.99 39.20 C 194.35 36.31 219.53 44.61 237.78 60.91 C 244.20 51.52 252.15 43.18 261.08 36.12 M 250.39 90.36 C 244.47 105.49 246.11 122.73 252.83 137.31 C 254.74 142.15 258.65 146.59 257.88 152.12 C 257.40 159.76 248.73 165.32 241.56 162.66 C 236.81 161.33 234.21 156.85 232.30 152.67 C 225.33 138.91 221.11 123.53 221.61 108.03 C 221.63 99.98 223.64 92.17 225.59 84.44 C 212.56 69.51 191.89 61.73 172.24 64.24 C 155.05 66.16 138.92 75.77 129.07 89.99 C 120.11 100.37 113.40 113.99 115.19 128.03 C 116.31 134.53 111.50 141.28 104.98 142.31 C 98.76 143.59 92.05 139.30 90.65 133.09 C 89.15 126.04 89.71 118.74 90.73 111.66 C 74.54 122.50 60.41 136.46 49.76 152.80 C 34.02 176.67 25.83 205.41 26.61 233.99 C 27.24 265.99 39.20 297.60 59.88 322.02 C 81.12 347.49 111.55 365.10 144.24 370.74 C 140.08 360.98 137.17 350.58 136.58 339.96 C 136.16 332.82 142.90 326.35 150.03 327.16 C 156.14 327.39 161.34 332.81 161.64 338.86 C 162.68 351.64 167.87 363.65 174.41 374.54 C 184.99 392.23 201.14 406.07 218.93 416.19 C 246.26 431.58 279.19 436.51 309.88 430.17 C 345.17 422.96 377.10 400.59 395.71 369.73 C 401.17 359.31 406.13 348.50 408.90 337.02 C 410.06 332.38 409.58 326.92 413.23 323.28 C 418.03 317.67 427.75 317.96 432.20 323.87 C 435.75 327.81 434.97 333.42 434.44 338.26 C 453.61 322.44 468.81 301.71 477.26 278.29 C 487.49 250.52 488.23 219.43 479.62 191.14 C 470.78 161.82 451.72 135.80 426.60 118.31 C 423.33 116.17 421.12 112.71 420.50 108.85 C 416.12 86.99 403.07 67.10 385.00 54.08 C 369.19 42.61 349.56 36.42 330.00 37.14 C 296.24 37.53 263.33 59.02 250.39 90.36 Z" />
<path fill="#c83b50" opacity="1.00" d=" M 345.50 253.63 C 352.34 252.28 359.76 254.43 364.72 259.36 C 369.93 264.29 372.35 271.92 370.94 278.95 C 369.63 286.02 364.55 292.21 357.90 294.92 C 351.71 297.50 344.33 296.96 338.59 293.47 C 331.87 289.57 327.62 281.80 328.10 274.03 C 328.19 264.26 335.94 255.38 345.50 253.63 Z" />
<path fill="#c83b50" opacity="1.00" d=" M 188.44 254.64 C 194.59 253.40 201.24 254.88 206.15 258.81 C 212.79 263.88 215.96 272.99 213.82 281.08 C 211.57 290.75 201.97 298.05 192.03 297.48 C 181.22 297.32 171.54 287.90 171.23 277.07 C 170.37 266.66 178.22 256.56 188.44 254.64 Z" />
<path fill="#c83b50" opacity="1.00" d=" M 216.22 322.85 C 254.82 322.83 293.42 322.83 332.02 322.85 C 329.36 339.87 320.30 356.07 306.34 366.34 C 294.95 374.84 280.14 378.83 266.06 376.49 C 254.01 374.69 242.82 368.48 234.41 359.72 C 224.64 349.75 218.50 336.55 216.22 322.85 Z" />
</g>
<g id="#ffe69dff">
<path fill="#ffe69d" opacity="1.00" d=" M 250.39 90.36 C 263.33 59.02 296.24 37.53 330.00 37.14 C 349.56 36.42 369.19 42.61 385.00 54.08 C 403.07 67.10 416.12 86.99 420.50 108.85 C 421.12 112.71 423.33 116.17 426.60 118.31 C 451.72 135.80 470.78 161.82 479.62 191.14 C 488.23 219.43 487.49 250.52 477.26 278.29 C 468.81 301.71 453.61 322.44 434.44 338.26 C 434.97 333.42 435.75 327.81 432.20 323.87 C 427.75 317.96 418.03 317.67 413.23 323.28 C 409.58 326.92 410.06 332.38 408.90 337.02 C 406.13 348.50 401.17 359.31 395.71 369.73 C 377.10 400.59 345.17 422.96 309.88 430.17 C 279.19 436.51 246.26 431.58 218.93 416.19 C 201.14 406.07 184.99 392.23 174.41 374.54 C 167.87 363.65 162.68 351.64 161.64 338.86 C 161.34 332.81 156.14 327.39 150.03 327.16 C 142.90 326.35 136.16 332.82 136.58 339.96 C 137.17 350.58 140.08 360.98 144.24 370.74 C 111.55 365.10 81.12 347.49 59.88 322.02 C 39.20 297.60 27.24 265.99 26.61 233.99 C 25.83 205.41 34.02 176.67 49.76 152.80 C 60.41 136.46 74.54 122.50 90.73 111.66 C 89.71 118.74 89.15 126.04 90.65 133.09 C 92.05 139.30 98.76 143.59 104.98 142.31 C 111.50 141.28 116.31 134.53 115.19 128.03 C 113.40 113.99 120.11 100.37 129.07 89.99 C 138.92 75.77 155.05 66.16 172.24 64.24 C 191.89 61.73 212.56 69.51 225.59 84.44 C 223.64 92.17 221.63 99.98 221.61 108.03 C 221.11 123.53 225.33 138.91 232.30 152.67 C 234.21 156.85 236.81 161.33 241.56 162.66 C 248.73 165.32 257.40 159.76 257.88 152.12 C 258.65 146.59 254.74 142.15 252.83 137.31 C 246.11 122.73 244.47 105.49 250.39 90.36 M 345.50 253.63 C 335.94 255.38 328.19 264.26 328.10 274.03 C 327.62 281.80 331.87 289.57 338.59 293.47 C 344.33 296.96 351.71 297.50 357.90 294.92 C 364.55 292.21 369.63 286.02 370.94 278.95 C 372.35 271.92 369.93 264.29 364.72 259.36 C 359.76 254.43 352.34 252.28 345.50 253.63 M 188.44 254.64 C 178.22 256.56 170.37 266.66 171.23 277.07 C 171.54 287.90 181.22 297.32 192.03 297.48 C 201.97 298.05 211.57 290.75 213.82 281.08 C 215.96 272.99 212.79 263.88 206.15 258.81 C 201.24 254.88 194.59 253.40 188.44 254.64 M 216.22 322.85 C 218.50 336.55 224.64 349.75 234.41 359.72 C 242.82 368.48 254.01 374.69 266.06 376.49 C 280.14 378.83 294.95 374.84 306.34 366.34 C 320.30 356.07 329.36 339.87 332.02 322.85 C 293.42 322.83 254.82 322.83 216.22 322.85 Z" />
</g>
</svg>
